<svg width="12" height="12" viewBox="0 0 12 12" fill="none" xmlns="http://www.w3.org/2000/svg">
<path fill-rule="evenodd" clip-rule="evenodd" d="M7.75417 1.92085C7.98197 1.69305 8.35132 1.69305 8.57913 1.92085L9.74579 3.08752C9.9736 3.31533 9.9736 3.68467 9.74579 3.91248C9.51799 4.14029 9.14864 4.14029 8.92083 3.91248L7.75417 2.74581C7.52636 2.51801 7.52636 2.14866 7.75417 1.92085Z" fill="#B5A2EE"/>
<path fill-rule="evenodd" clip-rule="evenodd" d="M10.0317 1.16667C9.90756 1.16667 9.78847 1.216 9.70066 1.3038L5.10572 5.89874L4.885 6.78162L5.76787 6.5609L10.3628 1.96596C10.4506 1.87815 10.5 1.75906 10.5 1.63488C10.5 1.5107 10.4506 1.39161 10.3628 1.3038C10.275 1.216 10.1559 1.16667 10.0317 1.16667ZM8.8757 0.478846C9.1823 0.172246 9.59814 0 10.0317 0C10.4653 0 10.8812 0.172246 11.1878 0.478846C11.4944 0.785445 11.6666 1.20128 11.6666 1.63488C11.6666 2.06848 11.4944 2.48432 11.1878 2.79092L6.47858 7.50011C6.40382 7.57487 6.31015 7.6279 6.20758 7.65355L4.22476 8.14925C4.02598 8.19895 3.81569 8.1407 3.67081 7.99581C3.52592 7.85092 3.46767 7.64064 3.51737 7.44185L4.01307 5.45904C4.03871 5.35647 4.09175 5.2628 4.16651 5.18804L8.8757 0.478846Z" fill="#B5A2EE"/>
<path fill-rule="evenodd" clip-rule="evenodd" d="M2.91667 1.16667C1.95017 1.16667 1.16667 1.95017 1.16667 2.91667V8.75C1.16667 9.7165 1.95017 10.5 2.91667 10.5H8.75C9.7165 10.5 10.5 9.7165 10.5 8.75V5.25C10.5 4.92783 10.7612 4.66667 11.0833 4.66667C11.4055 4.66667 11.6667 4.92783 11.6667 5.25V8.75C11.6667 10.3608 10.3608 11.6667 8.75 11.6667H2.91667C1.30584 11.6667 0 10.3608 0 8.75V2.91667C0 1.30584 1.30584 0 2.91667 0H6.41667C6.73883 0 7 0.261167 7 0.583333C7 0.905499 6.73883 1.16667 6.41667 1.16667H2.91667Z" fill="#B5A2EE"/>
</svg>
