<svg width="19" height="19" viewBox="0 0 19 19" fill="none" xmlns="http://www.w3.org/2000/svg">
<path fill-rule="evenodd" clip-rule="evenodd" d="M11.007 3.84488C10.131 3.12571 8.86896 3.12571 7.99298 3.84488L3.74532 7.33216C3.37899 7.6329 3.16667 8.08194 3.16667 8.5559V14.25C3.16667 15.1245 3.87555 15.8333 4.75 15.8333H14.25C15.1245 15.8333 15.8333 15.1245 15.8333 14.25V8.5559C15.8333 8.08194 15.621 7.6329 15.2547 7.33216L11.007 3.84488ZM6.9883 2.62113C8.44827 1.42251 10.5517 1.42251 12.0117 2.62113L16.2594 6.10841C16.992 6.7099 17.4167 7.60798 17.4167 8.5559V14.25C17.4167 15.9989 15.9989 17.4167 14.25 17.4167H4.75C3.0011 17.4167 1.58333 15.9989 1.58333 14.25V8.5559C1.58333 7.60797 2.00799 6.7099 2.74064 6.10841L6.9883 2.62113Z" fill="#434343"/>
<path fill-rule="evenodd" clip-rule="evenodd" d="M11.007 3.84488C10.131 3.12571 8.86896 3.12571 7.99298 3.84488L3.74532 7.33216C3.37899 7.6329 3.16667 8.08194 3.16667 8.5559V14.25C3.16667 15.1245 3.87555 15.8333 4.75 15.8333H14.25C15.1245 15.8333 15.8333 15.1245 15.8333 14.25V8.5559C15.8333 8.08194 15.621 7.6329 15.2547 7.33216L11.007 3.84488ZM6.9883 2.62113C8.44827 1.42251 10.5517 1.42251 12.0117 2.62113L16.2594 6.10841C16.992 6.7099 17.4167 7.60798 17.4167 8.5559V14.25C17.4167 15.9989 15.9989 17.4167 14.25 17.4167H4.75C3.0011 17.4167 1.58333 15.9989 1.58333 14.25V8.5559C1.58333 7.60797 2.00799 6.7099 2.74064 6.10841L6.9883 2.62113Z" fill="#B7A4ED"/>
<path fill-rule="evenodd" clip-rule="evenodd" d="M6.33333 12.6667C6.33333 11.3551 7.39666 10.2917 8.70833 10.2917H10.2917C11.6033 10.2917 12.6667 11.3551 12.6667 12.6667V16.6251H11.0833V12.6667C11.0833 12.2295 10.7289 11.8751 10.2917 11.8751H8.70833C8.27111 11.8751 7.91667 12.2295 7.91667 12.6667V16.6251H6.33333V12.6667Z" fill="#B7A4ED"/>
</svg>
