<svg width="19" height="19" viewBox="0 0 19 19" fill="none" xmlns="http://www.w3.org/2000/svg">
<path fill-rule="evenodd" clip-rule="evenodd" d="M11.007 3.84488C10.131 3.12571 8.86894 3.12571 7.99296 3.84488L3.7453 7.33216C3.37897 7.6329 3.16665 8.08194 3.16665 8.5559V14.25C3.16665 15.1245 3.87553 15.8333 4.74998 15.8333H14.25C15.1244 15.8333 15.8333 15.1245 15.8333 14.25V8.5559C15.8333 8.08194 15.621 7.6329 15.2547 7.33216L11.007 3.84488ZM6.98828 2.62113C8.44825 1.42251 10.5517 1.42251 12.0117 2.62113L16.2593 6.10841C16.992 6.7099 17.4166 7.60798 17.4166 8.5559V14.25C17.4166 15.9989 15.9989 17.4167 14.25 17.4167H4.74998C3.00108 17.4167 1.58331 15.9989 1.58331 14.25V8.5559C1.58331 7.60797 2.00797 6.7099 2.74062 6.10841L6.98828 2.62113Z" fill="#434343"/>
<path fill-rule="evenodd" clip-rule="evenodd" d="M11.007 3.84488C10.131 3.12571 8.86894 3.12571 7.99296 3.84488L3.7453 7.33216C3.37897 7.6329 3.16665 8.08194 3.16665 8.5559V14.25C3.16665 15.1245 3.87553 15.8333 4.74998 15.8333H14.25C15.1244 15.8333 15.8333 15.1245 15.8333 14.25V8.5559C15.8333 8.08194 15.621 7.6329 15.2547 7.33216L11.007 3.84488ZM6.98828 2.62113C8.44825 1.42251 10.5517 1.42251 12.0117 2.62113L16.2593 6.10841C16.992 6.7099 17.4166 7.60798 17.4166 8.5559V14.25C17.4166 15.9989 15.9989 17.4167 14.25 17.4167H4.74998C3.00108 17.4167 1.58331 15.9989 1.58331 14.25V8.5559C1.58331 7.60797 2.00797 6.7099 2.74062 6.10841L6.98828 2.62113Z" fill="white"/>
<path fill-rule="evenodd" clip-rule="evenodd" d="M6.33331 12.6667C6.33331 11.3551 7.39664 10.2917 8.70831 10.2917H10.2916C11.6033 10.2917 12.6666 11.3551 12.6666 12.6667V16.6251H11.0833V12.6667C11.0833 12.2295 10.7289 11.8751 10.2916 11.8751H8.70831C8.27109 11.8751 7.91665 12.2295 7.91665 12.6667V16.6251H6.33331V12.6667Z" fill="white"/>
</svg>
