<svg width="10" height="10" viewBox="0 0 10 10" fill="none" xmlns="http://www.w3.org/2000/svg">
<path fill-rule="evenodd" clip-rule="evenodd" d="M1.25 4.99992C1.25 4.7698 1.43655 4.58325 1.66667 4.58325H8.33333C8.56345 4.58325 8.75 4.7698 8.75 4.99992C8.75 5.23004 8.56345 5.41659 8.33333 5.41659H1.66667C1.43655 5.41659 1.25 5.23004 1.25 4.99992Z" fill="#AE98EE"/>
<path fill-rule="evenodd" clip-rule="evenodd" d="M5.00002 1.25C5.23014 1.25 5.41669 1.43655 5.41669 1.66667L5.41669 8.33333C5.41669 8.56345 5.23014 8.75 5.00002 8.75C4.7699 8.75 4.58335 8.56345 4.58335 8.33333L4.58335 1.66667C4.58335 1.43655 4.7699 1.25 5.00002 1.25Z" fill="#AE98EE"/>
</svg>
